<?xml version="1.0" encoding="UTF-8" standalone="no"?>
<!-- Created with Inkscape (http://www.inkscape.org/) by Deni Symonds in 2007 symode09@hotmail.com -->

<svg
   width="522.48999"
   height="464.26999"
   id="svg2"
   sodipodi:version="0.32"
   inkscape:version="1.3.2 (091e20e, 2023-11-25, custom)"
   version="1.0"
   sodipodi:docname="Tic_tac_toe.svg"
   inkscape:output_extension="org.inkscape.output.svg.inkscape"
   xmlns:inkscape="http://www.inkscape.org/namespaces/inkscape"
   xmlns:sodipodi="http://sodipodi.sourceforge.net/DTD/sodipodi-0.dtd"
   xmlns="http://www.w3.org/2000/svg"
   xmlns:svg="http://www.w3.org/2000/svg"
   xmlns:rdf="http://www.w3.org/1999/02/22-rdf-syntax-ns#"
   xmlns:cc="http://creativecommons.org/ns#"
   xmlns:dc="http://purl.org/dc/elements/1.1/">
  <defs
     id="defs4" />
  <sodipodi:namedview
     id="base"
     pagecolor="#ffffff"
     bordercolor="#666666"
     borderopacity="1.0"
     gridtolerance="10000"
     guidetolerance="10"
     objecttolerance="10"
     inkscape:pageopacity="0.0"
     inkscape:pageshadow="2"
     inkscape:zoom="1.4"
     inkscape:cx="234.64286"
     inkscape:cy="252.5"
     inkscape:document-units="px"
     inkscape:current-layer="layer1"
     width="522.49px"
     height="464.27px"
     inkscape:window-width="1680"
     inkscape:window-height="997"
     inkscape:window-x="3592"
     inkscape:window-y="140"
     inkscape:showpageshadow="2"
     inkscape:pagecheckerboard="0"
     inkscape:deskcolor="#d1d1d1"
     inkscape:window-maximized="1" />
  <metadata
     id="metadata7">
    <rdf:RDF>
      <cc:Work
         rdf:about="">
        <dc:format>image/svg+xml</dc:format>
        <dc:type
           rdf:resource="http://purl.org/dc/dcmitype/StillImage" />
      </cc:Work>
    </rdf:RDF>
  </metadata>
  <g
     inkscape:label="Layer 1"
     inkscape:groupmode="layer"
     id="layer1">
    <path
       style="fill:#990000;fill-opacity:1"
       d="m 177.51567,451.2002 c -2.30994,-4.5804 -5.2542,-20.8839 -6.80176,-37.6639 -1.51636,-16.44159 -2.06062,-30.64118 -2.40942,-62.86277 -0.29486,-27.23721 -0.79042,-47.29064 -1.1787,-47.69765 -0.0787,-0.0825 -1.7137,-0.24124 -3.63328,-0.35295 -1.91958,-0.11171 -4.66014,-0.29149 -6.09014,-0.3996 -1.43,-0.10811 -3.86,-0.28528 -5.4,-0.39379 -4.3161,-0.30431 -16.4844,-1.18759 -19.5,-1.41562 -2.98154,-0.22542 -38.533556,-3.09429 -43.299996,-3.49409 -1.65,-0.13854 -7.815,-0.71631 -13.7,-1.28428 -5.885,-0.56797 -11.69,-1.12012 -12.9,-1.22703 -5.6106,-0.49609 -13.97482,-1.35855 -14.30842,-1.47547 -0.16036,-0.0563 -1.28158,-0.1976 -2.49158,-0.31411 -3.0153,-0.29049 -7.98846,-0.91452 -10.4,-1.30531 -1.1,-0.17818 -2.9,-0.44965 -4,-0.6032 -5.50602,-0.76837 -9.12704,-1.6056 -10.17484,-2.35255 l -0.58368,-0.41602 0.4355,-0.35295 c 0.7774,-0.63023 3.26466,-0.98458 10.42302,-1.48548 14.65428,-1.02523 50.72638,-1.34174 93.299996,-0.81862 14.74,0.18118 27.07,0.36917 27.4,0.41742 0.33,0.0484 3.66,0.10931 7.4,0.13533 l 6.8,0.0471 -0.0585,-1.58959 c -0.10792,-2.93113 -1.82418,-35.19636 -3.13018,-58.84659 -0.7114,-12.88287 -1.52996,-28.10808 -1.819,-33.8338 -0.28904,-5.72572 -0.55536,-10.5105 -0.59184,-10.63262 -0.0482,-0.16136 -9.85502,-0.22703 -35.93338,-0.24044 -41.970416,-0.0214 -44.799576,-0.0553 -70.567076,-0.84284 -9.81342,-0.2999 -17.95924,-0.80521 -22.8,-1.41401 -6.58048,-0.82763 -8.97204,-1.44505 -10.18156,-2.62883 -0.8277,-0.81001 -0.76806,-1.38018 0.33254,-3.18018 1.5137,-2.47547 1.51864,-3.17377 0.04054,-5.72932 -0.44346,-0.76677 -0.85976,-1.72392 -0.9251,-2.12693 -0.1083,-0.66786 -0.04138,-0.809 0.7574,-1.59699 1.4231,-1.4036 4.60742,-2.31191 11.06754,-3.15695 2.97632,-0.38939 4.00882,-0.48269 11.80864,-1.06767 12.06846,-0.90531 35.56468,-1.50791 65.493536,-1.68028 l 23.89352,-0.13734 -8.56296,-7.3073 c -4.70964,-4.01901 -8.65464,-7.34093 -8.76666,-7.38177 -0.11204,-0.041 -0.26078,0.0104 -0.33056,0.11411 -0.2521,0.37497 -4.0393,2.62482 -6.25804,3.71771 -5.12782,2.52573 -12.549656,4.55215 -20.668836,5.64344 -5.31398,0.71432 -15.16464,0.87968 -18.4,0.30911 -2.33228,-0.41141 -5.74332,-1.34294 -7.03022,-1.91991 -0.34662,-0.15536 -0.69116,-0.28249 -0.76562,-0.28249 -0.07446,0 -1.14086,-0.5049 -2.36978,-1.12212 -10.57736,-5.31131 -17.54332,-16.17116 -19.23746,-29.99096 -0.3685,-3.0062 -0.41854,-9.43843 -0.09668,-12.43042 0.88424,-8.22041 3.34382,-16.12771 7.21284,-23.18836 0.77494,-1.41422 1.38152,-2.64925 1.34796,-2.74435 -0.03358,-0.09529 -1.8684,-2.04704 -4.0774,-4.33753 -2.20902,-2.29029 -4.50402,-4.71331 -5.1,-5.38418 -0.596,-0.67107 -2.03192,-2.24764 -3.19092,-3.5035 -1.159,-1.25605 -2.734,-3.0032 -3.5,-3.88268 -0.766,-0.87928 -1.48272,-1.7001 -1.59272,-1.82382 C 26.067054,54.54034 18.652914,44.59 14.665694,37.86108 12.399514,34.03666 11.949794,33.21944 10.322574,29.969 6.5582139,22.44943 4.2857138,15.01421 4.2857138,10.21721 c 0,-3.5993899 0.71442,-4.1727599 3.4404001,-2.7605496 1.84148,0.95395 2.9208801,1.08248 3.8112401,0.45405 0.36576,-0.25806 0.84362,-0.6971 1.06188,-0.9751703 0.21828,-0.27828 0.79308,-0.93394 1.27736,-1.45686 0.78568,-0.84865 0.97254,-0.95095 1.73496,-0.95095 0.759,0 0.97618,0.11732 1.94446,1.05105 0.72092,0.69509 1.652,2.0000003 2.7496,3.8538504 4.1145,6.9487395 7.06928,11.4652495 10.56074,16.1427295 3.80452,5.09669 5.05634,6.64063 11.31002,13.94993 3.2971,3.85365 16.51232,17.5185 21.37618,22.10368 2.54332,2.3974 2.55152,2.40301 3.0494,2.07648 0.97318,-0.63824 4.32212,-2.32072 6.04898,-3.03864 2.86522,-1.19159 5.70346,-2.03463 8.35144,-2.48087 0.55,-0.0927 1.45,-0.27608 2,-0.40761 1.54884,-0.37017 9.34284,-0.31131 11.8,0.08929 5.672276,0.92432 11.349776,3.1019 14.180016,5.43883 1.47522,1.21802 1.97096,2.0056 1.95576,3.1073 -0.013,0.93954 -0.22208,1.34475 -1.53732,2.97878 -1.4247,1.76977 -1.62926,2.23463 -1.99184,4.52492 -0.18734,1.18318 -0.5145,2.37357 -0.81218,2.95475 l -0.49848,0.97338 1.55672,1.62922 c 6.55252,6.85785 11.6113,13.92291 15.0713,21.04883 3.19586,6.58158 5.17602,13.93172 5.17602,19.21239 v 1.47428 l 4.85,4.15935 c 2.6675,2.28769 4.895,4.21201 4.95,4.27627 0.10334,0.12072 3.91432,3.41862 4.8,4.15395 0.275,0.22823 4.13914,3.57598 8.58698,7.43964 4.44782,3.86346 8.11712,6.99419 8.15398,6.95735 0.0369,-0.0368 -0.0241,-2.12973 -0.13556,-4.65105 -0.1114,-2.52112 -0.38144,-9.62882 -0.60008,-15.79498 -1.61264,-45.48104 -1.612,-69.14227 0.002,-78.69822 0.85068,-5.03603 2.00832,-6.27327 4.72594,-5.05125 1.599,0.71892 2.3368,0.96056 2.94338,0.96377 0.76396,0.0038 2.10124,-0.38939 2.7232,-0.801 0.8104,-0.53634 2.15602,-0.9978 2.90932,-0.9978 1.11754,0 2.27156,1.2989 3.03432,3.41541 3.68734,10.23182 6.005,40.72949 8.30598,109.29719 l 0.0504,1.5015 32.1,0.43704 c 40.14802,0.54695 66.86596,0.98318 76.7,1.25265 18.42612,0.50471 28.15484,0.64745 28.29824,0.41522 0.0778,-0.12613 0.2023,-1.5972 0.2768,-3.26907 0.7338,-16.47967 3.7274,-58.44839 5.5291,-77.51444 1.3344,-14.12151 2.7738,-22.6198 3.9047,-23.05423 0.4936,-0.18959 0.8684,0.31091 1.2777,1.7061 1.7257,5.88268 3.0996,23.04483 4.1049,51.27803 0.5051,14.18477 1.1058,39.77194 1.1076,47.18074 5e-4,2.1105 0.0556,3.97997 0.1224,4.15415 0.1051,0.27427 0.6731,0.31731 4.25,0.32232 2.2707,0.003 8.4486,0.13854 13.7286,0.3009 5.28,0.16216 13.11,0.38458 17.4,0.49409 4.29,0.10931 13.38,0.38379 20.2,0.60961 24.1112,0.7986 32.0184,0.94555 31.7994,0.59079 -0.0684,-0.11071 -0.6812,-0.57938 -1.3618,-1.04144 -0.6807,-0.46206 -1.3276,-0.91551 -1.4376,-1.00801 -0.11,-0.0923 -1.064,-0.81741 -2.12,-1.61121 -2.6092,-1.96175 -5.2584,-3.99879 -5.38,-4.13673 -0.055,-0.0623 -1.45,-1.18558 -3.1,-2.49589 -1.65,-1.31031 -3.1465,-2.52572 -3.3255,-2.7009 -0.179,-0.17497 -0.494,-0.45806 -0.7,-0.62903 -0.206,-0.17097 -2.1745,-1.86947 -4.3745,-3.77477 -2.2,-1.9051 -4.1072,-3.5071 -4.2381,-3.55976 -0.1309,-0.0529 -2.1109,0.95536 -4.4,2.24044 -4.4173,2.47968 -13.6443,7.1067 -14.1721,7.1067 -0.0631,0 -0.5815,0.21802 -1.1522,0.48469 -0.5707,0.26666 -1.8026,0.76877 -2.7376,1.11571 -0.935,0.34695 -1.88,0.70851 -2.1,0.8034 -0.22,0.0951 -1.255,0.44044 -2.3,0.76777 -9.3162,2.91772 -18.0028,3.17377 -20.45,0.603 -0.3025,-0.31771 -0.55,-0.7045 -0.55,-0.85945 0,-0.73434 1.7774,-2.13574 4.7942,-3.78038 4.9238,-2.68409 14.2383,-9.06286 20.2558,-13.87186 0.7425,-0.59319 2.0025,-1.5966 2.8,-2.22943 0.7975,-0.63283 1.495,-1.2018 1.55,-1.26426 0.055,-0.0625 1.2058,-0.9984 2.5575,-2.08008 1.3516,-1.08148 2.4316,-2.03403 2.4,-2.11671 -0.0317,-0.0827 -1.5341,-1.71452 -3.3387,-3.62623 -1.8047,-1.91171 -4.2882,-4.64684 -5.519,-6.07827 -2.577,-2.99719 -8.2564,-10.1131 -9.9607,-12.48007 -1.4755,-2.04944 -6.1404,-9.04423 -6.2967,-9.44183 -0.065,-0.16516 -0.4017,-0.75075 -0.7482,-1.3013 -0.3466,-0.55055 -1.313,-2.3073 -2.1475,-3.9039 -5.4031,-10.33673 -7.4989,-19.84743 -4.9736,-22.56995 0.7782,-0.83863 1.4403,-1.05185 4.2313,-1.36196 1.9215,-0.21341 2.8799,-0.42823 4.0103,-0.8989 4.8748,-2.02922 6.1421,-1.90129 8.8853,0.8973 1.7144,1.74895 2.63,3.12432 7.8022,11.72131 4.7996,7.97717 8.7094,13.93632 13.8577,21.1211 1.8147,2.53253 3.5861,5.01001 3.9364,5.5055 0.5175,0.73173 6.2201,8.36376 6.4006,8.56596 0.0507,0.0568 5.2157,-4.403 5.6031,-4.83784 0.11,-0.12372 0.83,-0.76476 1.6,-1.42502 0.77,-0.66026 1.49,-1.2991 1.6,-1.41982 0.11,-0.12072 1.775,-1.55755 3.7,-3.19259 1.925,-1.63523 3.635,-3.11331 3.8,-3.28488 0.165,-0.17157 0.84,-0.76036 1.5,-1.30831 0.66,-0.54814 1.245,-1.05004 1.3,-1.11531 0.1545,-0.18358 6.7917,-5.66606 9.7,-8.0122 10.0289,-8.09129 17.8618,-13.15134 22.7455,-14.69408 1.4257,-0.45045 2.0211,-0.53754 3.2505,-0.47528 1.4113,0.07127 1.5491,0.12012 2.2107,0.78238 0.4709,0.47127 1.002,1.42403 1.5963,2.86346 0.9514,2.30471 1.1347,2.60881 2.9721,4.93093 1.637,2.06867 1.9861,2.91852 1.8909,4.6042 -0.1231,2.18038 -1.3834,4.0036 -5.6935,8.23603 -1.3049,1.28148 -3.4075,3.21481 -4.6725,4.29629 -1.265,1.08148 -2.345,2.02322 -2.4,2.09269 -0.055,0.0693 -1.27,1.06186 -2.7,2.2054 -1.43,1.14355 -2.78,2.23103 -3,2.41642 -0.6206,0.52292 -4.4753,3.57917 -5.7009,4.52011 -0.6045,0.46407 -1.3691,1.08449 -1.6991,1.37878 -0.33,0.29429 -1.455,1.17077 -2.5,1.94775 -1.045,0.77677 -1.945,1.47047 -2,1.54114 -0.055,0.0707 -1.27,0.99499 -2.7,2.05385 -1.43,1.05906 -2.69,2.0008 -2.8,2.09309 -0.3004,0.25205 -4.3281,3.18678 -6.6,4.8092 -1.1,0.78559 -2.0978,1.51271 -2.2172,1.61582 -0.1195,0.1031 -1.4245,1.01341 -2.9,2.02262 -1.4756,1.00941 -2.7104,1.91311 -2.744,2.0084 -0.0645,0.18259 0.3308,0.72553 2.7746,3.80981 0.8288,1.04605 2.3621,3.02803 3.4073,4.4044 1.0452,1.37638 2.6218,3.44845 3.5036,4.6046 4.855,6.36556 9.7413,13.411 11.8211,17.04443 l 0.9584,1.67427 9.4981,0.14154 c 5.2239,0.0777 12.0181,0.24105 15.0981,0.36257 5.8495,0.23103 17.7173,1.04684 20.3,1.39539 0.825,0.11131 2.445,0.29369 3.6,0.40521 3.3871,0.32712 12.6329,1.90129 15.8,2.69008 2.4082,0.5998 7.1028,1.97297 7.95,2.32533 0.2475,0.1031 0.6525,0.26906 0.9,0.36896 3.1503,1.27167 5.35,2.55556 5.35,3.12252 0,0.14715 -0.281,0.32933 -0.6243,0.40481 -0.7578,0.16656 -5.0697,-0.0304 -9.6757,-0.44244 -2.2895,-0.20461 -6.9963,-0.33774 -14.41,-0.40721 -13.3692,-0.12533 -20.2958,0.13253 -42.19,1.57177 -8.36,0.54935 -16.595,1.08108 -18.3,1.18138 -1.705,0.1003 -4.27,0.28168 -5.7,0.4032 -6.5342,0.55536 -32.1505,1.37197 -71.7,2.28549 -8.085,0.18678 -14.8202,0.37757 -14.9671,0.42382 -0.2169,0.0685 -0.2443,0.91912 -0.1461,4.53853 0.0665,2.44985 0.2113,8.95875 0.3219,14.46425 0.5255,26.16614 1.3456,51.60315 2.2947,71.1711 0.4497,9.27207 1.1093,21.09328 1.191,21.34473 0.049,0.15095 1.4946,0.26266 4.4391,0.34294 9.2728,0.25285 53.4986,1.88628 54.8665,2.02622 0.605,0.0621 4.07,0.1996 7.7,0.30591 3.63,0.1063 8.535,0.28889 10.9,0.4056 6.7804,0.33454 21.6998,1.02122 26.2,1.20601 2.255,0.0925 5.585,0.26406 7.4,0.38118 1.815,0.11732 5.145,0.3053 7.4,0.41762 2.255,0.11251 5.315,0.29169 6.8,0.39819 1.485,0.10631 4.275,0.2935 6.2,0.41562 10.8537,0.68929 16.826,1.14935 23.2,1.78739 10.2302,1.02382 14.9019,1.63002 16.9,2.19299 0.33,0.0929 0.96,0.22682 1.4,0.29769 0.44,0.0709 1.5144,0.36277 2.3876,0.64865 3.7158,1.21662 4.0701,2.01321 2.2124,4.97517 -1.4023,2.23584 -1.419,2.66566 -0.2,5.13954 1.0493,2.12952 1.1366,2.97637 0.3938,3.82141 -2.9564,3.36396 -23.0494,4.25566 -68.3938,3.03524 -16.6871,-0.44925 -29.5502,-0.87728 -35.5,-1.18138 -1.155,-0.0591 -4.755,-0.20161 -8,-0.31692 -3.245,-0.11512 -7.34,-0.2987 -9.1,-0.40761 -1.76,-0.10891 -5.63,-0.28688 -8.6,-0.39559 -6.7357,-0.24625 -21.4434,-0.91031 -26.1,-1.17858 -1.925,-0.11091 -5.705,-0.2963 -8.4,-0.41221 -2.695,-0.11592 -5.845,-0.26006 -7,-0.32032 l -2.1,-0.10951 0.5,0.42722 c 0.275,0.23504 0.95,0.85506 1.5,1.37798 0.55,0.52292 6.2997,5.71891 12.7771,11.54694 6.4774,5.82802 11.977,10.77676 12.2214,10.99698 2.2785,2.05345 6.0862,5.49569 7.4617,6.74554 l 1.6955,1.54054 1.2434,-1.05605 c 3.3663,-2.85866 8.2708,-5.75455 12.4009,-7.32212 0.66,-0.25065 1.3544,-0.53393 1.5432,-0.62963 0.1888,-0.0959 0.6838,-0.25966 1.1,-0.36396 0.4162,-0.10451 1.5668,-0.41181 2.5568,-0.68308 0.99,-0.27107 3.06,-0.6919 4.6,-0.93514 2.4784,-0.39139 3.3283,-0.43083 7.4,-0.34474 4.0653,0.0861 4.9719,0.16917 7.8,0.71471 3.4394,0.66346 4.0453,0.81381 6.2,1.53914 3.3605,1.13113 6.811,2.77577 8.4803,4.04204 1.9683,1.49309 2.6197,2.35415 2.6197,3.46266 0,0.83303 -0.2444,1.26166 -1.5958,2.79959 -0.629,0.71572 -1.2929,1.59079 -1.4754,1.94475 -0.45,0.87287 -0.8506,4.72131 -0.5034,4.83703 0.1373,0.0458 1.7852,0.86706 3.6621,1.82502 2.8755,1.46767 4.6603,2.47227 7.2103,4.05846 1.8948,1.17877 7.681,5.76716 9.6598,7.66045 3.7286,3.56716 5.8419,6.34674 8.0497,10.58838 6.2885,12.08086 4.9885,25.11928 -3.6482,36.59158 -0.6375,0.8468 -1.1591,1.6174 -1.1591,1.7125 0,0.0949 1.5949,1.6993 3.5443,3.5653 7.3151,7.0018 17.5234,17.4276 20.2557,20.6873 2.0175,2.407 2.4791,3.5944 1.2604,3.242 -1.1678,-0.3377 -7.0742,-4.0074 -8.9604,-5.5673 -0.11,-0.0911 -0.515,-0.3808 -0.9,-0.6441 -0.385,-0.2632 -1.33,-0.9449 -2.1,-1.5149 -0.77,-0.5699 -2.3,-1.7017 -3.4,-2.5149 -1.1,-0.8132 -4.9083,-3.7151 -8.4628,-6.4488 -3.5545,-2.7336 -6.5695,-5.0106 -6.7,-5.0599 -0.1305,-0.0494 -0.5522,0.1862 -0.9372,0.5233 -0.8902,0.7798 -3.9095,3.0561 -5.6,4.2221 -5.5538,3.83 -14.304,7.7379 -23.4,10.4506 -9.0656,2.7035 -21.5806,4.5299 -31.4,4.5824 -3.5711,0.019 -4.8038,-0.0457 -5.9716,-0.3135 -6.5584,-1.5039 -11.4815,-4.7736 -15.7254,-10.4439 -4.297,-5.7415 -6.6501,-11.807 -8.0771,-20.8208 -0.7038,-4.4458 -0.8856,-7.6006 -0.7662,-13.30126 0.1496,-7.14673 0.7715,-11.74533 2.5502,-18.85743 1.643,-6.56897 5.0798,-14.8072 8.2156,-19.69308 l 0.7709,-1.2012 -0.8482,-0.78398 c -0.4665,-0.43103 -1.7032,-1.46426 -2.7482,-2.29609 -1.045,-0.83163 -2.215,-1.7986 -2.6,-2.14895 -0.385,-0.35015 -1.195,-1.02422 -1.8,-1.4981 -0.605,-0.47367 -1.1999,-0.95575 -1.3219,-1.07107 -0.7058,-0.66746 -18.7615,-15.50949 -18.8077,-15.46004 -0.0441,0.0468 0.3867,4.42382 1.2349,12.54753 1.8487,17.70569 3.9178,32.85963 8.214,60.16007 3.5945,22.8414 3.7403,23.9734 3.7632,29.2292 0.0165,3.7902 -0.007,4.0491 -0.4339,4.8495 -0.5355,1.0032 -1.2154,1.2554 -2.7358,1.0152 -2.6744,-0.4228 -3.6043,-0.423 -4.4236,-4e-4 -0.4341,0.224 -0.9692,0.5754 -1.1892,0.7808 -0.8146,0.7611 -2.2188,1.6336 -2.8293,1.7579 -0.7899,0.1608 -1.954,-0.3049 -2.6175,-1.0472 -4.5955,-5.1418 -10.5559,-25.2701 -15.339,-51.80017 -3.8032,-21.09467 -6.8666,-47.52808 -8.4337,-72.7727 l -0.3418,-5.5055 -0.5857,-0.62702 c -0.4353,-0.46607 -0.8256,-0.65886 -1.5194,-0.75055 -1.0576,-0.13994 -15.52424,-1.00981 -22.03364,-1.32513 -5.1124,-0.24744 -16.56754,-0.8995 -21.2,-1.2068 -1.815,-0.12032 -13.605,-0.85606 -26.2,-1.63464 -26.78248,-1.65605 -27.7967,-1.72091 -49.19476,-3.14634 -6.76212,-0.45045 -12.31014,-0.81902 -12.32894,-0.81902 -0.0353,0 -0.0804,1.03484 -0.58468,13.4134 -0.37094,9.1051 -1.04212,21.86425 -2.1905,41.6416 -2.10064,36.17614 -2.49234,45.44217 -3.00438,71.07097 -0.1639,8.2032 -0.39058,16.0411 -0.50372,17.4174 -0.38496,4.6825 -1.0334,5.7029 -2.17972,3.4297 z m 229.48674,-30.9486 c 4.4455,-0.4784 5.4974,-0.6384 9.8,-1.4917 2.2448,-0.445 5.144,-1.1353 5.9,-1.4046 0.275,-0.0981 1.31,-0.4186 2.3,-0.7123 0.99,-0.2937 1.98,-0.6154 2.2,-0.7147 0.22,-0.0995 0.85,-0.3269 1.4,-0.5057 2.5825,-0.839 9.2,-4.041 9.2,-4.4512 0,-0.1083 -2.43,-2.1159 -5.4,-4.4617 -4.591,-3.626 -6.218,-4.9329 -9.4,-7.55093 -0.5704,-0.46927 -5.4684,-4.37817 -6.2799,-5.01181 -0.374,-0.29189 -0.824,-0.67227 -1,-0.84524 -0.1761,-0.17297 -1.6701,-1.38619 -3.3201,-2.69609 -1.65,-1.30991 -3.045,-2.43444 -3.1,-2.4989 -0.055,-0.0645 -1,-0.82923 -2.1,-1.6993 -1.1,-0.87027 -2.225,-1.79279 -2.5,-2.05005 -0.275,-0.25745 -0.995,-0.84364 -1.6,-1.3027 -0.605,-0.45906 -1.64,-1.29009 -2.3,-1.84664 -0.66,-0.55676 -1.65,-1.37077 -2.2,-1.80921 -0.55,-0.43844 -1.18,-0.94915 -1.4,-1.13493 -1.3246,-1.11912 -6.353,-5.16817 -6.418,-5.16817 -0.0429,0 -0.4839,0.80901 -0.9801,1.7978 -2.8916,5.76336 -4.7832,12.42441 -5.7432,20.2242 -0.3719,3.02162 -0.3113,10.13297 0.1117,13.11307 0.6358,4.4789 1.5494,7.4903 3.0673,10.1103 0.7015,1.2108 1.9384,2.5027 2.5623,2.6761 0.22,0.0611 3.145,0.0703 6.5,0.0202 4.6012,-0.0686 7.2302,-0.2126 10.7,-0.5858 z m 39.5068,-16.2748 c 2.9317,-3.3157 4.6795,-7.22123 5.0866,-11.36617 0.2561,-2.60841 -0.5103,-6.4046 -1.932,-9.56876 -0.8217,-1.82863 -2.5373,-4.67427 -3.5372,-5.86646 -0.2883,-0.34395 -0.8835,-1.06467 -1.3225,-1.6016 -1.9807,-2.42282 -6.1547,-6.44724 -9.4796,-9.13993 -1.6015,-1.2971 -8.3785,-5.98418 -10.6221,-7.34654 -1.485,-0.9017 -2.9439,-1.81241 -3.2419,-2.02362 -0.4756,-0.33714 -0.9053,-0.38419 -3.5076,-0.38419 -6.244,0 -11.1436,1.15155 -15.5718,3.65986 -1.5426,0.87387 -3.0047,1.94154 -2.8787,2.1021 0.055,0.0703 3.925,3.64244 8.6,7.93813 4.675,4.29589 11.956,11.0112 16.18,14.92311 4.2241,3.91191 8.2741,7.65124 9,8.3097 0.726,0.65846 2.31,2.14634 3.52,3.3065 4.3661,4.18597 8.521,7.99357 8.733,8.00277 0.0731,0.003 0.5113,-0.422 0.9738,-0.9449 z M 289.19237,288.65057 c -0.1045,-0.0887 -0.82,-0.7003 -1.59,-1.35936 -0.77,-0.65905 -2.165,-1.82001 -3.1,-2.57977 -0.935,-0.75996 -1.745,-1.43804 -1.8,-1.50691 -0.11634,-0.14574 -3.26486,-2.79359 -6.4,-5.38238 -1.89398,-1.56396 -3.23554,-2.69449 -3.4831,-2.93493 -0.1193,-0.11591 -2.6469,-2.22222 -5.6169,-4.68047 -2.97,-2.45826 -5.97328,-4.97617 -6.67394,-5.59499 -0.70068,-0.61902 -1.5778,-1.34214 -1.94918,-1.60721 l -0.6752,-0.48188 -1.54128,0.94274 c -1.78058,1.08909 -6.29704,3.38899 -7.7604,3.95175 -0.55,0.21141 -1.225,0.48428 -1.5,0.60601 -1.0839,0.48007 -1.37152,0.58518 -3.4,1.24304 -4.93188,1.59959 -9.42414,2.32832 -14.35408,2.32832 -4.29348,0 -7.3128,-0.47727 -11.04592,-1.74574 -10.94118,-3.71772 -18.4838,-12.95755 -20.31068,-24.88086 -0.65362,-4.26606 -0.33962,-10.78637 0.71954,-14.94132 0.72142,-2.82983 2.1906,-6.72212 3.70518,-9.81561 0.81728,-1.66927 1.48596,-3.12292 1.48596,-3.23023 0,-0.1073 -0.2025,-0.32892 -0.45,-0.49249 -0.2475,-0.16356 -0.675,-0.51691 -0.95,-0.78498 -0.275,-0.26827 -1.625,-1.42382 -3,-2.56817 -2.93338,-2.44124 -7.65634,-6.44684 -7.8,-6.61521 -0.055,-0.0647 -1.20186,-1.03203 -2.54858,-2.14994 -1.34672,-1.11772 -2.7722,-2.32793 -3.16776,-2.68929 -0.39554,-0.36116 -0.86062,-0.73694 -1.03346,-0.83484 -0.3431,-0.19439 -0.35456,-1.6038 0.15364,18.89688 0.43556,17.57096 0.6099,28.83241 0.73218,47.29725 l 0.12828,19.36935 4.21784,0.004 c 2.31982,0.002 11.50786,0.18438 20.41786,0.4044 8.91,0.21982 20.295,0.48328 25.3,0.58519 5.005,0.1019 12.34,0.28368 16.3,0.4042 29.04064,0.88288 37.25772,1.07027 36.99,0.84324 z m 28.56624,-6.29529 c -0.2416,-9.67566 -0.1681,-50.80175 0.1084,-60.61055 0.3967,-14.07506 0.975,-30.1287 1.4136,-39.2392 0.0822,-1.7067 0.0938,-3.17076 0.0257,-3.25325 -0.1174,-0.14234 -35.6106,0.39039 -35.75684,0.53674 -0.0383,0.0382 0.67876,0.91291 1.59344,1.94354 5.0395,5.67847 10.4623,13.4132 13.13096,18.72891 3.87854,7.72552 4.8417,15.73812 2.70696,22.5187 -1.73026,5.49589 -5.70402,11.28607 -11.37846,16.57936 -0.88,0.82102 -1.645,1.54034 -1.7,1.5986 -0.055,0.0583 -0.505,0.43383 -1,0.83443 -0.495,0.4006 -1.125,0.92412 -1.4,1.16336 -0.275,0.23904 -0.70776,0.61342 -0.9617,0.83183 -0.56434,0.48549 -7.97928,6.16696 -8.5949,6.58578 -0.43154,0.2935 -0.36574,0.36677 2.90752,3.24084 1.842,1.61722 3.66408,3.22803 4.04908,3.57958 1.29636,1.18338 4.09294,3.68668 5,4.47547 0.8383,0.72893 3.1242,2.78458 5.49062,4.93773 0.55516,0.5051 1.3164,1.18078 1.69164,1.5015 0.37524,0.32072 0.91782,0.80841 1.20576,1.08368 0.28792,0.27528 1.2859,1.16657 2.21774,1.98078 0.93182,0.81401 2.18924,1.94114 2.79424,2.5045 0.605,0.56337 1.46,1.32633 1.9,1.6955 0.44,0.36917 1.295,1.13793 1.9,1.7083 0.605,0.57037 2.225,2.01922 3.6,3.21982 1.375,1.2006 2.64424,2.32292 2.82064,2.49389 0.578,0.56056 2.0509,1.88849 3.6765,3.31451 0.8784,0.77057 1.7624,1.60361 1.9645,1.85145 0.2021,0.24765 0.4537,0.45045 0.5591,0.45045 0.1215,0 0.1345,-2.29069 0.0355,-6.25625 z m -83.65646,-32.18915 c 2.29656,-0.24225 7.00022,-1.45165 7.00022,-1.8002 0,-0.13153 -0.28894,-0.39019 -2.00306,-1.79379 -0.60332,-0.4939 -1.14194,-0.94835 -1.19694,-1.00961 -0.055,-0.0615 -0.91,-0.77938 -1.9,-1.5956 -0.99,-0.81641 -1.845,-1.53833 -1.9,-1.6046 -0.54768,-0.65946 -11.69752,-9.78658 -11.80898,-9.66666 -0.3291,0.35396 -1.21288,3.2002 -1.49306,4.80841 -0.76182,4.37317 0.12186,8.14133 2.40272,10.24583 1.02472,0.94555 3.5416,2.21461 4.43622,2.23704 0.3097,0.008 0.7431,0.0915 0.9631,0.18618 0.55098,0.23684 3.21716,0.23344 5.49978,-0.007 z m 30.64424,-13.81961 c 3.51704,-1.99339 5.25632,-3.07447 9.86252,-6.12952 7.49344,-4.97037 11.83024,-9.25285 13.24392,-13.07807 0.58594,-1.58558 0.91472,-4.05665 0.7588,-5.7031 -0.55086,-5.81641 -2.46536,-10.85124 -9.92662,-26.10568 l -2.68216,-5.48367 -9.60024,0.13773 c -17.86532,0.25626 -45.54498,0.51051 -56.20024,0.51612 -11.34096,0.006 -14.17338,0.10871 -13.64534,0.49509 0.17142,0.12553 0.80008,0.67428 1.39704,1.21942 1.30116,1.18839 2.00286,1.80761 3.84526,3.39379 0.76744,0.66066 1.53208,1.34715 1.6992,1.52573 0.16712,0.17838 3.56804,3.18358 7.55762,6.67807 7.576,6.63563 7.34404,6.47126 8.04622,5.70029 0.14262,-0.15655 4.4159,-3.25345 4.821,-3.49369 0.18558,-0.11011 1.80928,-1.13013 3.60822,-2.26646 4.81056,-3.03884 10.03558,-5.47087 14.87078,-6.92152 0.99,-0.29689 2.07,-0.62082 2.4,-0.71971 0.74272,-0.22243 3.62394,-0.7956 5.1,-1.01462 0.605,-0.0899 1.64,-0.26126 2.3,-0.38098 0.66,-0.11972 3.45,-0.3047 6.2,-0.41081 10.76016,-0.41561 19.27736,1.0028 20.62448,3.43443 0.40244,0.72653 0.32,2.11812 -0.22704,3.83283 -0.62476,1.95816 -0.62192,2.53393 0.0242,4.9079 0.3759,1.38118 0.49608,2.22503 0.4302,3.02042 -0.0832,1.0048 -0.17192,1.17658 -0.98956,1.91752 -1.47716,1.33873 -4.03674,2.18798 -9.46228,3.13933 -1.32,0.23143 -2.805,0.49209 -3.3,0.57918 -0.495,0.0871 -2.115,0.34755 -3.6,0.57878 -1.485,0.23143 -2.97,0.5027 -3.3,0.6034 -0.33,0.1005 -1.005,0.24184 -1.5,0.31432 -1.75064,0.25585 -5.33024,1.27947 -8.38836,2.39859 -2.65516,0.97177 -8.95086,4.53353 -11.73332,6.63803 l -0.57058,0.43164 0.49614,0.47427 c 0.27286,0.26086 1.17112,1.05766 1.99612,1.77037 0.825,0.71291 1.545,1.34214 1.6,1.39819 0.055,0.0563 0.82,0.72933 1.7,1.4957 0.88,0.76656 2.09808,1.84684 2.70682,2.4008 1.78132,1.62062 2.79786,2.52512 4.39356,3.9095 0.8248,0.71572 1.54462,1.34635 1.59962,1.4014 0.10748,0.10791 1.18504,1.07488 3.68148,3.3037 4.78638,4.27307 6.63642,5.87828 6.78992,5.89129 0.0943,0.008 1.61196,-0.802 3.37262,-1.8 z M 90.423334,131.85473 c 3.45868,-0.26887 7.11772,-0.81722 8.67904,-1.3007 0.495,-0.15335 1.304656,-0.38318 1.799216,-0.51091 l 0.89924,-0.23223 -0.79924,-0.69169 c -0.43956,-0.38038 -1.564216,-1.33674 -2.499216,-2.12533 -0.935,-0.78858 -2.06,-1.76416 -2.5,-2.16796 -0.75622,-0.69389 -1.73248,-1.5011 -5,-4.13393 -0.77,-0.62042 -1.445,-1.17798 -1.5,-1.23924 -0.055,-0.0613 -0.91,-0.78078 -1.9,-1.599 -0.99,-0.81841 -5.91998,-5.59298 -10.95552,-10.6102 -7.2354,-7.2092 -9.19488,-9.05945 -9.34328,-8.82201 -0.43718,0.6991 -2.0243,5.9055 -2.53272,8.3083 -0.50796,2.4006 -0.55118,2.95976 -0.557,7.2072 -0.0068,4.98938 0.19356,6.34914 1.40732,9.54974 0.8881,2.34194 2.85238,4.97697 4.58028,6.14434 1.4746,0.99619 4.216,1.97757 6.10092,2.18418 2.35258,0.25766 11.00066,0.28188 14.12096,0.0394 z m 19.173496,-28.01619 c -1.98556,-5.7099 -5.57844,-12.80019 -10.924256,-21.55813 l -1.97046,-3.22803 -1.79986,0.07488 c -4.63052,0.19279 -5.42184,0.26606 -7.19988,0.66686 -1.045,0.23544 -2.05628,0.51392 -2.24728,0.61882 -0.191,0.1049 -0.43264,0.19079 -0.53698,0.19079 -0.10434,0 -0.43816,0.09449 -0.74184,0.21001 -0.54732,0.20841 -0.48412,0.27848 7.23698,8.02602 4.28402,4.29869 8.47232,8.41581 9.307336,9.14914 2.27068,1.99419 3.69142,3.19939 4.97452,4.21981 2.49758,1.98599 4.11034,3.32673 4.17394,3.47007 0.0367,0.0825 0.14612,0.15015 0.24326,0.15015 0.0971,0 -0.13484,-0.89569 -0.51548,-1.99039 z M 215.20237,433.452 c -0.99,-0.1409 -2.385,-0.3976 -3.1,-0.5703 -1.61062,-0.389 -5.02804,-1.6605 -6.1,-2.2693 -0.44,-0.2501 -1.025,-0.5644 -1.3,-0.6985 -1.30376,-0.6362 -4.55868,-3.3179 -7,-5.7674 -8.07726,-8.1039 -12.2049,-17.8454 -12.19836,-28.78873 0.007,-10.93993 3.89246,-21.47825 11.67856,-31.67124 1.62824,-2.13173 2.46678,-3.08468 5.5198,-6.27406 7.77208,-8.11892 19.7168,-15.16816 30.4,-17.94093 0.385,-0.0999 1.195,-0.31651 1.8,-0.48168 0.605,-0.16496 1.55,-0.35615 2.1,-0.42502 0.55,-0.0689 1.27,-0.20901 1.6,-0.31172 0.95872,-0.29829 6.98848,-0.79239 9.5,-0.77857 1.265,0.007 3.39126,0.12272 4.72504,0.25745 l 2.42504,0.24465 -0.98552,-1.57397 c -1.60042,-2.55636 -1.71972,-3.35175 -0.50108,-3.34134 1.1202,0.009 4.37548,1.64845 6.43652,3.24084 1.30308,1.0066 3.94966,3.26826 4.48924,3.83603 0.37908,0.399 0.78408,0.72712 0.9,0.72913 0.308,0.005 2.79384,1.17737 4.41076,2.07947 2.25728,1.25926 4.50526,2.97337 6.10642,4.65565 2.51248,2.64004 2.74944,3.86326 1.07346,5.54094 l -0.90996,0.91091 0.52788,0.86206 c 0.29032,0.47428 0.80448,1.31271 1.14256,1.86326 1.1909,1.93934 3.5167,6.63503 4.51172,9.1091 2.71126,6.74114 3.7298,11.79238 3.73408,18.5185 0.003,4.09529 -0.22752,5.87667 -1.18976,9.2092 -1.9506,6.75537 -5.66364,12.12687 -11.8964,17.20997 -0.935,0.7626 -2.105,1.7183 -2.6,2.1237 -2.47274,2.0257 -9.14502,6.4273 -13.5,8.9061 -3.38984,1.9294 -10.5564,5.3634 -14.4,6.9003 -2.44462,0.9774 -7.21214,2.5804 -9,3.0261 -3.3278,0.8294 -4.09352,0.9779 -7.5714,1.4694 -4.00264,0.5654 -7.77376,0.6351 -10.8286,0.2 z m 11.9,-20.997 c 3.57404,-0.5409 10.72756,-2.5771 14.1,-4.0136 0.44,-0.1875 1.205,-0.4788 1.7,-0.6474 0.495,-0.1688 1.26,-0.4679 1.7,-0.6649 0.44,-0.197 1.385,-0.601 2.1,-0.8979 1.38052,-0.5729 7.15678,-3.3994 8.5,-4.1591 2.6091,-1.4757 3.40314,-1.944 5.3,-3.12574 1.155,-0.71952 2.19,-1.38138 2.3,-1.47087 0.11,-0.0895 0.965,-0.73674 1.9,-1.43844 2.72368,-2.04364 4.33318,-3.99639 5.6011,-6.79539 2.70408,-5.96976 2.28558,-15.05784 -1.14426,-24.84882 -0.88094,-2.51471 -0.41314,-2.2026 -4.35684,-2.90671 -1.32,-0.23563 -3.21,-0.59459 -4.2,-0.79779 -3.28932,-0.67468 -5.86592,-0.86807 -9.94036,-0.74595 -2.41952,0.0725 -4.38202,0.23544 -5.25964,0.43644 -0.77,0.17637 -1.895,0.41281 -2.5,0.52552 -1.22158,0.22723 -1.39288,0.27648 -4.44374,1.27308 -2.9378,0.95975 -5.43196,2.06726 -8.05626,3.57757 -1.5993,0.92032 -5.76288,3.63263 -6.14498,4.003 -0.14026,0.13593 -0.79502,0.66767 -1.45502,1.18138 -1.44956,1.12833 -3.78426,3.36276 -5.47154,5.23683 -4.50298,5.0012 -7.72906,11.08467 -8.74512,16.49107 -0.44396,2.36216 -0.30012,6.55836 0.29332,8.55672 0.91386,3.0773 2.79004,6.0861 5.59568,8.9742 1.75972,1.8114 2.6179,2.2184 5.52766,2.6222 1.03842,0.1442 5.12114,-0.0661 7.1,-0.3654 z M 35.509414,399.13495 c -0.30066,-0.56237 -0.25386,-2.07468 0.10792,-3.48769 0.66006,-2.57797 2.90384,-6.5045 6.01672,-10.52892 1.64266,-2.12372 5.6309,-6.37597 8.17776,-8.71911 1.1968,-1.1011 2.35926,-2.18698 2.58328,-2.41301 0.224,-0.22582 1.44228,-1.26826 2.70728,-2.31611 1.265,-1.04805 2.435,-2.03824 2.6,-2.2006 0.74794,-0.73573 11.82594,-9.14734 12.7342,-9.66906 0.01882,-0.0108 -0.50212,-0.6048 -1.15764,-1.32012 -3.69246,-4.02882 -7.2493,-9.09568 -9.37214,-13.35094 -1.67694,-3.36155 -2.65178,-6.13092 -3.32972,-9.45925 -0.43816,-2.15134 -0.49856,-2.87547 -0.41836,-5.01661 0.1178,-3.14534 0.46186,-4.3033 1.6462,-5.54053 l 0.88312,-0.92252 3.05716,0.15835 c 3.68992,0.1914 2.99206,0.19059 6.85718,0.008 3.00678,-0.14234 3.26958,-0.12512 4.35212,0.28509 1.61006,0.61021 2.91694,2.0064 4.84788,5.17897 2.16864,3.56296 5.09714,8.01881 6.4684,9.84203 1.84192,2.44865 6.07518,7.4074 6.32384,7.4074 0.04192,0 0.87082,-0.46006 1.842,-1.02222 0.97116,-0.56236 2.80076,-1.57177 4.06576,-2.24324 1.265,-0.67147 2.66,-1.42322 3.1,-1.67047 1.192776,-0.66987 11.202116,-5.67467 11.349316,-5.67467 0.11364,0 1.75508,-0.74194 4.65068,-2.1019 2.37442,-1.11511 13.4526,-5.48247 15,-5.9133 0.33,-0.0919 1.87634,-0.56937 3.43632,-1.06106 1.55998,-0.4917 3.22498,-0.95856 3.7,-1.03724 0.47502,-0.0789 1.00762,-0.21882 1.18352,-0.31111 0.35566,-0.18659 4.6913,-0.99199 8.08016,-1.5009 3.63144,-0.54555 8.01302,-0.12312 9.93366,0.95736 1.51212,0.85085 1.87008,1.92592 1.44214,4.33172 -0.38572,2.16877 -0.3853,3.98959 10e-4,6.48428 0.56442,3.64024 -0.0819,5.34074 -2.67458,7.03623 -1.8548,1.21281 -3.16206,1.80921 -8.80734,4.01781 -2.14246,0.83824 -4.16538,1.64645 -4.49538,1.7962 -0.33,0.14955 -1.995,0.77918 -3.7,1.3992 -1.705,0.61982 -3.28,1.2046 -3.5,1.29929 -0.22,0.0947 -0.985,0.3982 -1.7,0.67468 -0.715,0.27627 -3.73,1.46806 -6.7,2.64844 -4.9386,1.96256 -6.47882,2.59239 -7.6,3.10751 -0.22,0.1009 -0.895,0.37177 -1.5,0.6018 -2.51322,0.95515 -10.60716,4.47307 -10.5557,4.58778 0.0306,0.0683 1.9457,1.87207 4.2557,4.00821 2.31,2.13633 6.5878,6.27727 9.5062,9.20239 6.2475,6.26146 7.58704,7.7085 10.11164,10.92371 4.33562,5.52132 6.286,9.87307 5.15154,11.49449 -0.3147,0.44965 -0.4087,0.46666 -1.95,0.35175 -1.71962,-0.12813 -2.46704,-0.37017 -6.11938,-1.98158 -2.27894,-1.00541 -13.4775,-6.63043 -13.94084,-7.0024 -0.13248,-0.1065 -0.53748,-0.35015 -0.9,-0.54154 -1.7236,-0.90991 -9.28268,-5.12512 -9.45916,-5.27447 -0.11,-0.0933 -1.66392,-1.04324 -3.45314,-2.11131 -2.930316,-1.74934 -9.596676,-5.97376 -9.846856,-6.24003 -0.11792,-0.12553 -0.93474,-0.70551 -3.03092,-2.15255 -0.842,-0.58138 -1.66428,-1.05686 -1.8273,-1.05686 -0.163,0 -5.0091,2.34014 -10.76908,5.2006 -8.89672,4.41801 -11.78372,5.9037 -17.53184,9.02241 -0.36254,0.1968 -0.76754,0.44204 -0.9,0.54495 -0.13248,0.1029 -0.73586,0.44344 -1.34086,0.75675 -2.45908,1.27327 -14.2166,8.43983 -14.6,8.89909 -0.1577,0.18899 -2.02144,1.25886 -2.87184,1.64865 -1.02726,0.47087 -1.85848,0.45786 -2.12112,-0.0334 z M 266.97175,148.2419 c -4.92154,-0.69589 -16.0231,-6.01901 -25.36938,-12.16455 -5.67294,-3.73013 -12.43316,-8.57136 -15.06136,-10.78598 l -1.06136,-0.89429 -1.33864,0.55596 c -2.62688,1.09109 -13.79218,6.49048 -16.53864,7.99779 -6.4683,3.55014 -7.68072,3.68428 -7.85978,0.86946 -0.27278,-4.28828 3.51874,-10.58958 10.57852,-17.58096 l 2.72912,-2.7027 -3.69762,-3.8038 c -3.7116,-3.81821 -8.2261,-9.04283 -11.1081,-12.85544 -4.74156,-6.27287 -8.43622,-13.44403 -8.84974,-17.17716 -0.30886,-2.78839 0.56436,-3.89449 4.24154,-5.37277 1.74512,-0.7015 3.009,-1.38598 4.5559,-2.46666 2.44562,-1.70891 3.29694,-2.06787 4.90336,-2.06787 2.182,0 4.55104,1.64765 7.91544,5.5055 1.4321,1.64204 10.17096,12.44463 11.59738,14.33612 0.21668,0.28729 1.10418,1.36837 1.9722,2.4024 0.86802,1.03404 1.90302,2.28028 2.3,2.76937 1.30698,1.61061 4.2323,5.01661 4.30864,5.01661 0.0412,0 1.18594,-0.71672 2.54398,-1.59279 5.51644,-3.55836 17.62498,-10.67707 22.50904,-13.23322 1.29806,-0.67928 3.21512,-1.68809 4.26012,-2.24164 11.52534,-6.1053 15.99082,-7.72292 18.45642,-6.68568 0.9276,0.39019 2.10554,1.76516 3.29324,3.84424 0.56956,0.9968 1.64638,2.51952 2.39294,3.38358 2.9809,3.44985 3.26342,3.92712 3.24862,5.48888 -0.028,2.95696 -2.90954,6.27648 -9.09122,10.47287 -3.6767,2.49609 -11.71976,6.85084 -17.7,9.58357 -1.375,0.62843 -3.4,1.56637 -4.5,2.08448 -1.1,0.51832 -4.025,1.8002 -6.5,2.84905 -2.475,1.04865 -4.57068,1.97197 -4.65704,2.05165 -0.0864,0.0799 0.72362,1.09349 1.8,2.25245 1.07636,1.15896 3.57164,3.84024 5.54504,5.95795 6.65416,7.14134 11.32026,12.42121 13.7197,15.52431 0.596,0.77077 1.13652,1.44645 1.20116,1.5015 0.29598,0.25205 1.4038,2.03203 2.05584,3.3033 0.98562,1.92132 1.10156,2.69609 0.50186,3.35315 -0.55958,0.61302 -1.5452,0.76897 -3.29718,0.52132 z"
       id="path2221"
       sodipodi:nodetypes="cssssscscscscccscccccccssssccsccsscccccsccccccscscsccccccccsccccscccscscscccsccccscsccsccssssccsscscccccsscsscscccssccsscscccsssccssccssccsscscccccscscscsscscccscsccssscsssscscsssccsssscccssscssscscssscscssscssscccccsssssccscscsssccsscsccccccscsssssssscccsscsssssssscccsscsscscccccccsssscscscsscsccscssssssccccsccsssssssccscscscsssssccssccsssssccsscscsscsssscscscccssssssscccccssscccscsssscscsscssccsccsssscsssscscsscsccccccsccccccsscscccsccssccccscsssscssccccccscccccccsccccccscsscccsscccccccccsscssccsccscccsccscscscccccssccsccscssscssccccscscsssccsscsscsssscsssscsssscccscssssccscccscscsssscsccsscsccsccccscccssscsccscsccscssssscscsscscsccscsscscccsccscccccscsscscsscsc" />
    <path
       d="m 453.69774,277.41449 c -0.44422,-0.17798 -1.98088,-1.37137 -2.94404,-2.28629 -2.49108,-2.36676 -4.87858,-4.45064 -6.7799,-5.91791 -0.77,-0.59439 -1.445,-1.12993 -1.5,-1.19019 -0.21048,-0.23063 -1.8544,-1.47167 -3.44364,-2.5996 -0.911,-0.64664 -1.77254,-1.27887 -1.91452,-1.4052 -0.30948,-0.27507 -16.01678,-10.6088 -16.12554,-10.6088 -0.0417,0 -1.50236,-0.96076 -3.24602,-2.13513 -1.74364,-1.17417 -3.71028,-2.4979 -4.37028,-2.94154 -0.66,-0.44364 -2.02652,-1.41982 -3.03672,-2.16937 -1.01022,-0.74934 -1.89472,-1.36256 -1.96556,-1.36256 -0.1907,0 -13.0114,5.68048 -15.79772,6.9996 -1.32,0.62482 -2.715,1.26506 -3.1,1.42262 -0.385,0.15755 -3.895,1.87627 -7.8,3.81961 -5.93944,2.95556 -9.19454,4.72492 -16.5511,8.99599 -0.3581,0.20801 -1.8431,1.17637 -3.3,2.15195 -3.07256,2.05745 -4.46916,2.83643 -5.08596,2.83643 -0.99436,0 -1.34168,-1.63723 -0.78848,-3.71651 0.79146,-2.97517 2.92614,-6.53373 6.71736,-11.19839 0.26848,-0.33033 2.02266,-2.13353 3.89816,-4.0068 3.64756,-3.64344 7.06676,-6.59098 12.42166,-10.7079 1.93728,-1.48949 8.91212,-6.39038 11.67618,-8.20439 l 2.58706,-1.6977 -1.14656,-1.2052 c -3.68102,-3.86887 -8.23962,-10.88628 -10.14668,-15.61941 -1.81096,-4.49469 -2.56152,-8.05905 -2.45306,-11.64964 0.065,-2.15295 0.12512,-2.47106 0.67142,-3.55675 0.96968,-1.92672 1.12202,-1.98778 5.36458,-2.14915 2.20032,-0.0837 4.1486,-0.26506 4.93542,-0.45965 0.715,-0.17678 2.0819,-0.37318 3.03756,-0.43624 2.0257,-0.13373 2.85582,0.16076 4.47634,1.58879 0.77476,0.68248 3.8861,5.05244 3.8861,5.45785 0,0.22082 4.54298,7.02662 5.6114,8.4062 1.52306,1.96676 5.0205,6.08748 5.7532,6.77837 l 0.61132,0.57637 1.16204,-0.66266 c 0.63912,-0.36456 1.52204,-0.86006 1.96204,-1.1009 0.44,-0.24104 2.33,-1.27587 4.2,-2.29969 1.87,-1.02403 4.84,-2.61402 6.6,-3.53333 3.58038,-1.87027 23.75598,-11.96456 26.21628,-13.11651 0.87106,-0.40781 2.52872,-1.18458 3.68372,-1.72612 1.155,-0.54154 2.82,-1.32192 3.7,-1.73413 4.16158,-1.95015 10.76912,-4.61782 13,-5.24885 5.62098,-1.58939 7.14256,-1.07567 8.66974,2.92773 0.71982,1.88688 1.55162,3.22962 3.09186,4.99078 1.45566,1.66447 1.83886,2.46747 1.82978,3.83443 -0.0174,2.62523 -2.73912,5.59259 -9.24174,10.07587 -0.90568,0.62442 -1.68938,1.13533 -1.74154,1.13533 -0.0522,0 -0.79534,0.43704 -1.65148,0.97117 -3.83706,2.3944 -6.8418,3.95475 -18.79244,9.75875 -4.2401,2.05926 -24.79976,11.2128 -26.01866,11.58377 -0.40636,0.12373 0.19968,0.78859 5.72484,6.27968 6.39562,6.35615 8.69662,8.9105 12.02442,13.34853 3.865,5.15415 6.14382,9.4086 7.50642,14.014 0.64466,2.17878 0.9063,5.95735 0.5003,7.22502 -0.47834,1.49349 -1.31872,1.97197 -2.57756,1.46767 z"
       style="fill:#990000;fill-opacity:1"
       id="path1" />
    <path
       d="m 61.230981,266.25972 c -5.1075,-0.81682 -8.9865,-2.74755 -12.3,-6.12252 -2.5185,-2.56516 -4.3283,-6.02342 -5.1372,-9.81621 -0.5535,-2.59599 -0.4897,-7.66906 0.1285,-10.2102 1.678,-6.89769 5.2721,-14.1163 10.1266,-20.33872 1.9974,-2.56035 2.2039,-2.78818 5.8821,-6.48908 3.7788,-3.8024 4.0848,-4.07407 7.8031,-6.93172 1.8944,-1.45566 6.6193,-4.67888 6.859,-4.67888 0.0533,0 0.6922,-0.36196 1.4196,-0.8044 1.6589,-1.00881 6.5634,-3.39739 8.4183,-4.0997 2.9742,-1.12612 4.7472,-1.66686 8.9242,-2.72152 1.9328,-0.48808 6.1988,-1.01301 9.075799,-1.11691 5.2047,-0.18779 9.4455,0.33433 14.6536,1.8042 3.7668,1.06306 8.236,3.61842 10.1514,5.8044 1.8117,2.06747 1.6827,3.22542 -0.6408,5.75115 -0.8053,0.87547 -1.4642,1.7043 -1.4642,1.84184 0,0.13733 0.2719,0.37037 0.6043,0.51771 0.8657,0.38359 2.7262,2.14254 3.2964,3.11632 1.621,2.76896 1.8321,6.54734 0.577,10.32731 -1.3927,4.19459 -4.7138,9.69369 -8.4567,14.00339 -2.5497,2.93574 -6.4373,6.75035 -9.7019,9.52011 -0.6489,0.55055 -1.2787,1.0939 -1.3995,1.20741 -0.1208,0.11351 -0.8046,0.65185 -1.5196,1.19619 -1.4987,1.14094 -1.504,1.14495 -2.3,1.80641 -1.0364,0.86106 -7.509799,5.17056 -9.599999,6.39098 -1.1,0.64224 -2.315,1.36557 -2.7,1.60741 -0.6381,0.4006 -6.5826,3.34874 -8.5,4.21541 -1.2417,0.56136 -5.4454,2.07627 -7,2.52292 -1.5316,0.43984 -2.0586,0.56957 -4.3,1.05726 -0.825,0.17958 -1.95,0.42502 -2.5,0.54534 -1.5227,0.33333 -8.5084,0.3966 -10.4,0.0941 z m 10.6769,-19.96475 c 2.6101,-0.43844 5.152,-0.9978 6.8231,-1.5017 2.0473,-0.61702 6.8202,-2.27187 7.1,-2.46146 0.11,-0.0747 0.56,-0.25545 1,-0.4018 0.44,-0.14655 1.295,-0.49169 1.9,-0.76717 0.605,-0.27547 1.775,-0.79219 2.6,-1.14834 2.4226,-1.04605 9.169599,-4.65045 12.499999,-6.67807 1.8749,-1.14155 6.7494,-4.35175 7.3948,-4.86987 0.8553,-0.68689 1.9484,-1.53393 2.412,-1.86927 1.6545,-1.19679 4.6613,-4.05104 6.6425,-6.3057 2.1391,-2.43423 3.2064,-4.69148 2.9466,-6.23122 l -0.1379,-0.81682 -0.5979,0.72613 c -1.1656,1.41541 -1.2241,1.42422 -8.9619,1.35035 l -6.9017,-0.0659 -3.5479,0.62382 c -3.920899,0.68929 -5.154399,1.01842 -8.648599,2.30671 -2.1,0.77437 -6.7396,3.1073 -9,4.52552 -9.1096,5.71531 -16.9633,14.10429 -19.6639,21.00418 -0.9179,2.34515 -0.9411,2.56016 -0.2866,2.65926 1.1903,0.18038 5.1749,0.13153 6.4274,-0.0787 z"
       style="fill:#990000;fill-opacity:1"
       id="path1-1" />
  </g>
</svg>
